<svg width="40" height="18" viewBox="0 0 40 18" fill="none" xmlns="http://www.w3.org/2000/svg">
<g clip-path="url(#clip0_275_2)">
<path d="M30.8796 17.7045L39.7687 9.48656C39.923 9.33211 40 9.14693 40 8.93069C40 8.72978 39.923 8.55246 39.7687 8.39824L30.8796 0.296296C30.6324 0.0956266 30.3625 0.0569521 30.0693 0.180273C29.7761 0.303837 29.6295 0.527533 29.6295 0.851604V6.03691L0.740004 6.03691C0.524092 6.03691 0.346528 6.10623 0.207803 6.24528C0.069402 6.38417 8.13787e-05 6.56141 8.13787e-05 6.77773V11.2221C8.13787e-05 11.4385 0.069402 11.6161 0.207803 11.7543C0.346609 11.893 0.524092 11.9629 0.740004 11.9629L29.6295 11.9629V17.1482C29.6295 17.4568 29.7762 17.6803 30.0693 17.819C30.3628 17.9431 30.6327 17.9043 30.8796 17.7045Z" fill="white"/>
</g>
<defs>
<clipPath id="clip0_275_2">
<rect width="18" height="40" fill="white" transform="matrix(0 1 -1 0 40 0)"/>
</clipPath>
</defs>
</svg>
