<svg width="80" height="64" viewBox="0 0 80 64" fill="none" xmlns="http://www.w3.org/2000/svg">
<path d="M3.99951 36.0005H66.3435L45.1715 57.1725C43.6095 58.7345 43.6095 61.2665 45.1715 62.8285C46.7335 64.3905 49.2665 64.3905 50.8285 62.8285L78.8285 34.8285C80.3905 33.2665 80.3905 30.7335 78.8285 29.1725L50.8285 1.17251C50.0475 0.391512 49.0235 0.000514984 47.9995 0.000514984C46.9765 0.000514984 45.9525 0.391512 45.1715 1.17251C43.6095 2.73451 43.6095 5.26752 45.1715 6.82852L66.3435 28.0005H3.99951C1.79151 28.0005 -0.000488281 29.7915 -0.000488281 32.0005C-0.000488281 34.2095 1.79051 36.0005 3.99951 36.0005Z" fill="white"/>
</svg>
