<svg width="24" height="24" viewBox="0 0 24 24" fill="none" xmlns="http://www.w3.org/2000/svg">
<path d="M10.193 18.9331C9.43702 18.9331 8.82202 19.5241 8.82202 20.2501C8.82202 20.9761 9.43702 21.5671 10.193 21.5671C10.949 21.5671 11.564 20.9761 11.564 20.2501C11.564 19.5241 10.949 18.9331 10.193 18.9331ZM10.193 20.7671C9.87902 20.7671 9.62302 20.5361 9.62302 20.2501C9.62302 19.9641 9.87902 19.7331 10.193 19.7331C10.507 19.7331 10.763 19.9641 10.763 20.2501C10.763 20.5361 10.508 20.7671 10.193 20.7671Z" fill="white"/>
<path d="M10.193 15.2671C9.43702 15.2671 8.82202 15.8581 8.82202 16.5841C8.82202 17.3101 9.43702 17.9001 10.193 17.9001C10.949 17.9001 11.564 17.3091 11.564 16.5841C11.564 15.8571 10.949 15.2671 10.193 15.2671ZM10.193 17.1001C9.87902 17.1001 9.62302 16.8691 9.62302 16.5841C9.62302 16.2991 9.87902 16.0671 10.193 16.0671C10.507 16.0671 10.763 16.2981 10.763 16.5841C10.764 16.8681 10.508 17.1001 10.193 17.1001Z" fill="white"/>
<path d="M6.52391 15.2671C5.75791 15.2671 5.13391 15.8581 5.13391 16.5841C5.13391 17.3101 5.75791 17.9001 6.52391 17.9001C7.28991 17.9001 7.91391 17.3091 7.91391 16.5841C7.91391 15.8571 7.28991 15.2671 6.52391 15.2671ZM6.52391 17.1001C6.20491 17.1001 5.93491 16.8641 5.93491 16.5841C5.93491 16.2991 6.19891 16.0671 6.52391 16.0671C6.84891 16.0671 7.11291 16.2981 7.11291 16.5841C7.11291 16.8631 6.84391 17.1001 6.52391 17.1001Z" fill="white"/>
<path d="M6.52391 18.9331C5.75791 18.9331 5.13391 19.5241 5.13391 20.2501C5.13391 20.9761 5.75791 21.5671 6.52391 21.5671C7.28991 21.5671 7.91391 20.9761 7.91391 20.2501C7.91391 19.5241 7.28991 18.9331 6.52391 18.9331ZM6.52391 20.7671C6.20491 20.7671 5.93491 20.5311 5.93491 20.2501C5.93491 19.9691 6.20491 19.7331 6.52391 19.7331C6.84291 19.7331 7.11291 19.9691 7.11291 20.2501C7.11291 20.5311 6.84391 20.7671 6.52391 20.7671Z" fill="white"/>
<path d="M8.34995 3.23408H15.766C15.987 3.23408 16.166 3.05408 16.166 2.83408C16.166 2.61408 15.986 2.43408 15.766 2.43408H8.34995C8.12895 2.43408 7.94995 2.61408 7.94995 2.83408C7.94995 3.05408 8.12895 3.23408 8.34995 3.23408Z" fill="white"/>
<path d="M17.5 4.26611H6.53696C5.76596 4.26611 5.13696 4.89511 5.13696 5.66611V9.16611C5.13696 9.93711 5.76596 10.5661 6.53696 10.5661H17.5C18.271 10.5661 18.9 9.93711 18.9 9.16611V5.66611C18.9 4.89511 18.271 4.26611 17.5 4.26611ZM18.1 9.16611C18.1 9.49711 17.831 9.76611 17.5 9.76611H6.53696C6.20596 9.76611 5.93696 9.49711 5.93696 9.16611V5.66611C5.93696 5.33511 6.20596 5.06611 6.53696 5.06611H17.5C17.831 5.06611 18.1 5.33511 18.1 5.66611V9.16611Z" fill="white"/>
<path d="M18.8629 12.9161C18.8629 12.1901 18.2569 11.6001 17.5109 11.6001C16.7649 11.6001 16.1589 12.1911 16.1589 12.9161C16.1589 13.6431 16.7649 14.2331 17.5109 14.2331C18.2569 14.2331 18.8629 13.6431 18.8629 12.9161ZM16.9609 12.9161C16.9609 12.6321 17.2079 12.4001 17.5119 12.4001C17.8159 12.4001 18.0629 12.6311 18.0629 12.9161C18.0629 13.2011 17.8159 13.4331 17.5119 13.4331C17.2079 13.4331 16.9609 13.2011 16.9609 12.9161Z" fill="white"/>
<path d="M20.171 1.7581L19.583 1.1281L19.463 1.0451C18.907 0.796098 17.995 0.600098 17.387 0.600098H6.61296C6.00496 0.600098 5.09196 0.796098 4.53696 1.0451L3.90996 1.6391L3.82896 1.7581C3.58096 2.3141 3.38696 3.2261 3.38696 3.8341V20.1671C3.38696 20.7751 3.58096 21.6871 3.82896 22.2431L4.41796 22.8721L4.53696 22.9551C5.09296 23.2041 6.00496 23.4001 6.61296 23.4001H17.386C17.994 23.4001 18.907 23.2041 19.462 22.9551L20.088 22.3621L20.17 22.2431C20.418 21.6861 20.612 20.7751 20.612 20.1671V3.8341C20.613 3.2261 20.419 2.3141 20.171 1.7581ZM19.813 20.1671C19.813 20.6401 19.658 21.3911 19.468 21.8531L19.07 22.2531C18.609 22.4441 17.86 22.6001 17.387 22.6001H6.61296C6.13996 22.6001 5.39096 22.4451 4.92996 22.2531L4.53196 21.8531C4.34296 21.3911 4.18696 20.6401 4.18696 20.1671V3.8341C4.18696 3.3611 4.34196 2.6101 4.53196 2.1481L4.92996 1.7471C5.39196 1.5561 6.14096 1.4001 6.61296 1.4001H17.386C17.859 1.4001 18.608 1.5551 19.069 1.7471L19.467 2.1481C19.656 2.6101 19.812 3.3611 19.812 3.8341L19.813 20.1671Z" fill="white"/>
<path d="M17.5299 15.2671C16.7749 15.2671 16.1599 15.8961 16.1599 16.6671V20.1671C16.1599 20.9381 16.7749 21.5671 17.5299 21.5671C18.2849 21.5671 18.8999 20.9381 18.8999 20.1671V16.6671C18.8999 15.8961 18.2849 15.2671 17.5299 15.2671ZM18.0999 20.1671C18.0999 20.4981 17.8449 20.7671 17.5309 20.7671C17.2169 20.7671 16.9619 20.4981 16.9619 20.1671V16.6671C16.9619 16.3361 17.2169 16.0671 17.5309 16.0671C17.8449 16.0671 18.0999 16.3361 18.0999 16.6671V20.1671Z" fill="white"/>
<path d="M13.863 15.2671C13.118 15.2671 12.511 15.8581 12.511 16.5841C12.511 17.3101 13.117 17.9001 13.863 17.9001C14.609 17.9001 15.215 17.3091 15.215 16.5841C15.215 15.8571 14.608 15.2671 13.863 15.2671ZM13.863 17.1001C13.559 17.1001 13.312 16.8691 13.312 16.5841C13.312 16.2991 13.559 16.0671 13.863 16.0671C14.167 16.0671 14.414 16.2981 14.414 16.5841C14.414 16.8681 14.167 17.1001 13.863 17.1001Z" fill="white"/>
<path d="M13.863 11.6001C13.118 11.6001 12.511 12.1911 12.511 12.9161C12.511 13.6431 13.117 14.2331 13.863 14.2331C14.609 14.2331 15.215 13.6421 15.215 12.9161C15.215 12.1901 14.608 11.6001 13.863 11.6001ZM13.863 13.4331C13.559 13.4331 13.312 13.2021 13.312 12.9161C13.312 12.6321 13.559 12.4001 13.863 12.4001C14.167 12.4001 14.414 12.6311 14.414 12.9161C14.414 13.2011 14.167 13.4331 13.863 13.4331Z" fill="white"/>
<path d="M13.863 18.9331C13.118 18.9331 12.511 19.5241 12.511 20.2501C12.511 20.9761 13.117 21.5671 13.863 21.5671C14.609 21.5671 15.215 20.9761 15.215 20.2501C15.215 19.5241 14.608 18.9331 13.863 18.9331ZM13.863 20.7671C13.559 20.7671 13.312 20.5361 13.312 20.2501C13.312 19.9641 13.559 19.7331 13.863 19.7331C14.167 19.7331 14.414 19.9641 14.414 20.2501C14.414 20.5361 14.167 20.7671 13.863 20.7671Z" fill="white"/>
<path d="M10.193 11.6001C9.43702 11.6001 8.82202 12.1911 8.82202 12.9161C8.82202 13.6431 9.43702 14.2331 10.193 14.2331C10.949 14.2331 11.564 13.6421 11.564 12.9161C11.564 12.1901 10.949 11.6001 10.193 11.6001ZM10.193 13.4331C9.87902 13.4331 9.62302 13.2021 9.62302 12.9161C9.62302 12.6321 9.87902 12.4001 10.193 12.4001C10.507 12.4001 10.763 12.6311 10.763 12.9161C10.764 13.2011 10.508 13.4331 10.193 13.4331Z" fill="white"/>
</svg>
