<svg width="32" height="32" viewBox="0 0 32 32" fill="none" xmlns="http://www.w3.org/2000/svg">
<path d="M6.99999 20H8.99999C10.105 20 11 19.1039 11 17.9999V16C11 14.895 10.105 14 8.99999 14H6.99999C5.89499 14 4.99999 14.895 4.99999 16V17.9999C4.99999 19.1039 5.89499 20 6.99999 20ZM6.99999 16H8.99999V17.9999H6.99999V16ZM23 27.9999H25C26.105 27.9999 27 27.1049 27 26V24C27 22.895 26.105 22 25 22H23C21.896 22 21 22.895 21 24V26C21 27.1049 21.895 27.9999 23 27.9999ZM23 24H25V26H23V24ZM23 20H25C26.105 20 27 19.1039 27 17.9999V16C27 14.895 26.105 14 25 14H23C21.896 14 21 14.895 21 16V17.9999C21 19.1039 21.895 20 23 20ZM23 16H25V17.9999H23V16ZM27 2H23V0.999998C23 0.447989 22.552 0 22 0C21.4481 0 21 0.447989 21 0.999998V2H11V0.999998C11 0.447989 10.552 0 9.99999 0C9.44798 0 8.99999 0.447989 8.99999 0.999998V2H4.99999C2.79103 2 1 3.79102 1 5.99999V27.9999C1 30.2089 2.79103 32 4.99999 32H27C29.2089 32 31 30.209 31 27.9999V5.99999C31 3.79097 29.209 2 27 2ZM29 27.9999C29 29.105 28.105 30 27 30H4.99999C3.895 30 3 29.1039 3 27.9999V9.99998H29V27.9999H29ZM29 7.99999H3V5.99999C3 4.89499 3.895 3.99999 4.99999 3.99999H8.99999V4.99999C8.99999 5.552 9.44798 5.99999 9.99999 5.99999C10.552 5.99999 11 5.552 11 4.99999V3.99999H21V4.99999C21 5.552 21.448 5.99999 22 5.99999C22.5519 5.99999 23 5.552 23 4.99999V3.99999H27C28.105 3.99999 29 4.89499 29 5.99999V7.99999ZM15 27.9999H17C18.105 27.9999 19 27.1049 19 26V24C19 22.895 18.105 22 17 22H15C13.896 22 13 22.895 13 24V26C13 27.1049 13.895 27.9999 15 27.9999ZM15 24H17V26H15V24ZM15 20H17C18.105 20 19 19.1039 19 17.9999V16C19 14.895 18.105 14 17 14H15C13.896 14 13 14.895 13 16V17.9999C13 19.1039 13.895 20 15 20ZM15 16H17V17.9999H15V16ZM6.99999 27.9999H8.99999C10.105 27.9999 11 27.1049 11 26V24C11 22.895 10.105 22 8.99999 22H6.99999C5.89499 22 4.99999 22.895 4.99999 24V26C4.99999 27.1049 5.89499 27.9999 6.99999 27.9999ZM6.99999 24H8.99999V26H6.99999V24Z" fill="#4B85BD"/>
</svg>
