<svg width="22" height="27" viewBox="0 0 22 27" fill="none" xmlns="http://www.w3.org/2000/svg">
<g clip-path="url(#clip0_434_17)">
<path d="M11.1863 17.0643L15.1268 12.5227C15.3713 12.2409 15.7678 12.2409 16.0124 12.5227C16.2569 12.8046 16.2569 13.2615 16.0124 13.5433L11.0029 19.3169C10.7584 19.5988 10.3619 19.5988 10.1174 19.3169L5.10794 13.5433C4.86341 13.2615 4.86341 12.8046 5.10794 12.5227C5.35248 12.2409 5.74896 12.2409 5.9935 12.5227L9.93397 17.0643V1.48586C9.93397 1.08728 10.2143 0.76416 10.5602 0.76416C10.906 0.76416 11.1863 1.08728 11.1863 1.48586V17.0643ZM19.9528 18.8066C19.9528 18.408 20.2332 18.0849 20.579 18.0849C20.9249 18.0849 21.2052 18.408 21.2052 18.8066V23.1368C21.2052 25.1297 19.8035 26.7453 18.0743 26.7453H3.046C1.31686 26.7453 -0.0848932 25.1297 -0.0848932 23.1368V18.8066C-0.0848932 18.408 0.195457 18.0849 0.541286 18.0849C0.887115 18.0849 1.16747 18.408 1.16747 18.8066V23.1368C1.16747 24.3325 2.00852 25.3019 3.046 25.3019H18.0743C19.1118 25.3019 19.9528 24.3325 19.9528 23.1368V18.8066Z" fill="#919191"/>
</g>
<defs>
<clipPath id="clip0_434_17">
<rect width="21.3962" height="27" fill="white"/>
</clipPath>
</defs>
</svg>
