<svg width="26" height="26" viewBox="0 0 26 26" fill="none" xmlns="http://www.w3.org/2000/svg">
<g clip-path="url(#clip0_193_8)">
<path d="M19.5038 0.767822C16.7952 0.767822 14.7456 2.3574 13.0025 4.01845C11.3415 2.2558 9.20985 0.767822 6.50125 0.767822C2.68663 0.767822 0 4.04768 0 7.62422C0 9.5429 0.785844 10.9252 1.64643 12.223L11.7502 24.3365C12.8847 25.5368 13.0984 25.5368 14.2329 24.3365L24.3593 12.223C25.3711 10.9252 26.005 9.5429 26.005 7.62422C26.005 4.04773 23.3183 0.767822 19.5038 0.767822ZM22.7544 11.8866L13.0025 23.5222L3.25063 11.8386C2.08448 10.2174 1.62531 9.12359 1.62531 7.62422C1.62531 4.8303 3.62039 2.31512 6.50125 2.29154C8.87098 2.27203 11.5568 4.69211 13.0025 6.51654C14.41 4.75551 17.134 2.29154 19.5038 2.29154C22.3082 2.29154 24.3797 4.8303 24.3797 7.62422C24.3797 9.12359 24.0164 10.2987 22.7544 11.8866Z" fill="#0E81B2"/>
</g>
<defs>
<clipPath id="clip0_193_8">
<rect width="26" height="26" fill="white"/>
</clipPath>
</defs>
</svg>
