<svg width="22" height="21" viewBox="0 0 22 21" fill="none" xmlns="http://www.w3.org/2000/svg">
<path d="M11.976 20.9969C8.936 20.9969 6.392 19.9729 4.344 17.9249C2.296 15.8929 1.272 13.4289 1.272 10.5329C1.272 7.65289 2.288 5.18089 4.32 3.11689C6.368 1.05289 8.856 0.0208864 11.784 0.0208864C14.68 0.0208864 17.144 0.972886 19.176 2.87689C21.224 4.76489 22.248 6.98089 22.248 9.52489C22.248 11.4289 21.8 12.8849 20.904 13.8929C20.024 14.9009 18.976 15.4049 17.76 15.4049C16.912 15.4049 16.2 15.2289 15.624 14.8769C15.048 14.5089 14.64 14.0129 14.4 13.3889C13.264 14.7329 11.944 15.4049 10.44 15.4049C9.24 15.4049 8.224 15.0049 7.392 14.2049C6.56 13.3889 6.144 12.3329 6.144 11.0369C6.144 9.38889 6.712 7.98089 7.848 6.81289C9 5.64489 10.28 5.06089 11.688 5.06089C13.272 5.06089 14.44 5.72489 15.192 7.05289L15.504 5.39689L17.112 5.61289L16.152 11.0609C16.04 11.6849 15.984 12.1729 15.984 12.5249C15.984 13.1329 16.16 13.6129 16.512 13.9649C16.88 14.3009 17.384 14.4689 18.024 14.4689C18.952 14.4689 19.744 14.0449 20.4 13.1969C21.056 12.3489 21.384 11.1249 21.384 9.52489C21.384 7.25289 20.448 5.23689 18.576 3.47689C16.72 1.71689 14.456 0.836886 11.784 0.836886C9.048 0.836886 6.752 1.78089 4.896 3.66889C3.056 5.55689 2.136 7.84489 2.136 10.5329C2.136 13.2369 3.064 15.5169 4.92 17.3729C6.776 19.2449 9.128 20.1809 11.976 20.1809C14.104 20.1809 16.096 19.6369 17.952 18.5489L18.336 19.1969C16.368 20.3969 14.248 20.9969 11.976 20.9969ZM10.8 13.9169C11.824 13.9169 12.736 13.4849 13.536 12.6209C14.336 11.7409 14.736 10.7329 14.736 9.59689C14.736 8.71689 14.456 7.98889 13.896 7.41289C13.352 6.83689 12.656 6.54889 11.808 6.54889C10.768 6.54889 9.848 6.97289 9.048 7.82089C8.264 8.66889 7.872 9.70089 7.872 10.9169C7.872 11.8449 8.144 12.5809 8.688 13.1249C9.232 13.6529 9.936 13.9169 10.8 13.9169Z" fill="white"/>
</svg>
