<svg width="24" height="24" viewBox="0 0 24 24" fill="none" xmlns="http://www.w3.org/2000/svg">
<path d="M0.737549 23.6876L2.70317 15.772L14.7625 3.71265L20.7125 9.66265L8.65317 21.722L0.737549 23.6876ZM4.08443 16.5158L2.80942 21.6158L7.90942 20.3408L18.6407 9.60952L14.8157 5.78452L4.08443 16.5158Z" fill="#4B85BD"/>
<path d="M7.37815 21.2437C6.8469 19.1718 5.25315 17.5781 3.18127 17.0468L3.55316 15.5593C6.15628 16.1968 8.17503 18.2156 8.81253 20.8187L7.37815 21.2437Z" fill="#4B85BD"/>
<path d="M7.21875 18.322L6.15625 17.2064L16.7281 6.63452L17.7906 7.69702L7.21875 18.322Z" fill="#4B85BD"/>
<path d="M1.80005 22.6251L4.13755 22.0407C3.92505 21.1907 3.23442 20.5001 2.38442 20.2876L1.80005 22.6251Z" fill="#4B85BD"/>
<path d="M21.2969 9.07818L15.3469 3.12817L17.7375 0.737549L18.1094 0.790677C20.9782 1.16255 23.2625 3.44692 23.6344 6.31567L23.6875 6.68756L21.2969 9.07818ZM17.525 3.12817L21.35 6.95318L22.0938 6.20943C21.6688 4.29693 20.1813 2.80943 18.2688 2.38443L17.525 3.12817Z" fill="#4B85BD"/>
</svg>
