<svg width="26" height="26" viewBox="0 0 26 26" fill="none" xmlns="http://www.w3.org/2000/svg">
<path d="M7.43484 24.6464C8.37364 24.6395 9.30834 24.5216 10.2195 24.2954C13.366 23.5362 16.6062 21.6103 19.3417 18.8725C22.0771 16.1346 24.0054 12.8939 24.7645 9.75031C25.5639 6.44353 24.9938 3.61446 23.161 1.78162L22.6376 1.2583C22.1628 0.78444 21.5194 0.518311 20.8486 0.518311C20.1778 0.518311 19.5344 0.78444 19.0596 1.2583L16.0523 4.26501C15.5781 4.73966 15.3117 5.38313 15.3117 6.05403C15.3117 6.72494 15.5781 7.36841 16.0523 7.84306L17.8287 9.61888C16.9771 11.1132 15.8188 12.6088 14.4499 13.9777C13.0809 15.3466 11.5842 16.5055 10.0904 17.3571L8.31464 15.5807C8.07974 15.3457 7.80084 15.1593 7.49384 15.0321C7.18694 14.9049 6.85784 14.8395 6.52564 14.8395C6.19334 14.8395 5.86434 14.9049 5.55734 15.0321C5.25044 15.1593 4.97154 15.3457 4.73664 15.5807L1.72984 18.5874C1.25564 19.0619 0.989241 19.7053 0.989241 20.3761C0.989241 21.047 1.25564 21.6904 1.72984 22.1648L2.25384 22.6882C3.54594 23.9827 5.33434 24.6464 7.43484 24.6464ZM20.8486 2.31755C20.9444 2.31707 21.0394 2.33573 21.1279 2.37241C21.2164 2.4091 21.2967 2.46308 21.3641 2.5312L21.8881 3.05452C23.2606 4.42705 23.6615 6.65538 23.0169 9.32541C22.3346 12.1539 20.5779 15.0928 18.0712 17.599C15.5643 20.1052 12.626 21.86 9.79704 22.5447C7.12634 23.1893 4.89924 22.7884 3.52674 21.4159L3.00334 20.8925C2.86664 20.7557 2.78984 20.5702 2.78984 20.3767C2.78984 20.1833 2.86664 19.9977 3.00334 19.8609L6.00954 16.8542C6.14634 16.7175 6.33184 16.6407 6.52534 16.6407C6.71874 16.6407 6.90434 16.7175 7.04114 16.8542L9.29224 19.1053C9.42734 19.2405 9.60194 19.3291 9.79074 19.3585C9.97954 19.3878 10.1728 19.3563 10.3425 19.2686C12.1879 18.3143 14.0484 16.925 15.7228 15.2506C17.3972 13.5762 18.7835 11.717 19.7402 9.87154C19.828 9.70187 19.8596 9.50866 19.8304 9.31985C19.8011 9.13104 19.7126 8.95644 19.5775 8.82129L17.3258 6.57016C17.189 6.43331 17.1122 6.24778 17.1122 6.05433C17.1122 5.86089 17.189 5.67535 17.3258 5.53851L20.3325 2.5312C20.4001 2.4632 20.4805 2.4093 20.5691 2.37262C20.6577 2.33595 20.7527 2.31723 20.8486 2.31755Z" fill="white"/>
<path d="M6.47345 13.8242C6.71225 13.8242 6.94125 13.7293 7.11005 13.5605C7.27885 13.3917 7.37375 13.1627 7.37375 12.9239C7.37545 11.3447 8.00355 9.8306 9.12015 8.71384C10.2368 7.59708 11.7508 6.96884 13.3301 6.96693C13.5688 6.96693 13.7978 6.87209 13.9666 6.70326C14.1354 6.53444 14.2303 6.30547 14.2303 6.06672C14.2303 5.82797 14.1354 5.59899 13.9666 5.43017C13.7978 5.26135 13.5688 5.1665 13.3301 5.1665C9.05295 5.1665 5.57325 8.64733 5.57325 12.9239C5.57325 13.1627 5.66815 13.3917 5.83695 13.5605C6.00575 13.7293 6.23475 13.8242 6.47345 13.8242Z" fill="white"/>
<path d="M2.66855 13.8241C2.90735 13.8241 3.13635 13.7293 3.30515 13.5605C3.47395 13.3916 3.56885 13.1627 3.56885 12.9239C3.56885 7.54124 7.94985 3.162 13.3301 3.162C13.5688 3.162 13.7978 3.06716 13.9666 2.89833C14.1354 2.72951 14.2303 2.50054 14.2303 2.26179C14.2303 2.02303 14.1354 1.79406 13.9666 1.62524C13.7978 1.45642 13.5688 1.36157 13.3301 1.36157C6.95485 1.36157 1.76835 6.5486 1.76835 12.9239C1.76835 13.1627 1.86325 13.3916 2.03205 13.5605C2.20085 13.7293 2.42985 13.8241 2.66855 13.8241Z" fill="white"/>
</svg>
