<svg width="26" height="26" viewBox="0 0 26 26" fill="none" xmlns="http://www.w3.org/2000/svg">
<path d="M18.5651 24.6464C17.6263 24.6395 16.6916 24.5216 15.7804 24.2954C12.6339 23.5362 9.39374 21.6103 6.65829 18.8725C3.92284 16.1346 1.99458 12.8939 1.23541 9.75031C0.436016 6.44353 1.00615 3.61446 2.83898 1.78162L3.36231 1.2583C3.83712 0.784441 4.48052 0.518311 5.15133 0.518311C5.82214 0.518311 6.46555 0.784441 6.94035 1.2583L9.94767 4.26501C10.4218 4.73966 10.6882 5.38313 10.6882 6.05403C10.6882 6.72494 10.4218 7.36841 9.94767 7.84306L8.17125 9.61888C9.02285 11.1132 10.1811 12.6088 11.55 13.9777C12.919 15.3466 14.4157 16.5055 15.9095 17.3571L17.6853 15.5807C17.9202 15.3457 18.1991 15.1593 18.5061 15.0321C18.813 14.9049 19.1421 14.8395 19.4743 14.8395C19.8066 14.8395 20.1356 14.9049 20.4426 15.0321C20.7495 15.1593 21.0284 15.3457 21.2633 15.5807L24.2701 18.5874C24.7443 19.0619 25.0107 19.7053 25.0107 20.3761C25.0107 21.047 24.7443 21.6904 24.2701 22.1648L23.7461 22.6882C22.454 23.9827 20.6656 24.6464 18.5651 24.6464ZM5.15133 2.31755C5.05551 2.31707 4.96056 2.33573 4.87204 2.37241C4.78351 2.4091 4.7032 2.46308 4.63581 2.5312L4.11189 3.05452C2.73936 4.42705 2.33847 6.65538 2.98302 9.32541C3.66538 12.1539 5.422 15.0928 7.92879 17.599C10.4356 20.1052 13.3739 21.86 16.2029 22.5447C18.8736 23.1893 21.1007 22.7884 22.4732 21.4159L22.9966 20.8925C23.1333 20.7557 23.2101 20.5702 23.2101 20.3767C23.2101 20.1833 23.1333 19.9977 22.9966 19.8609L19.9904 16.8542C19.8536 16.7175 19.6681 16.6407 19.4746 16.6407C19.2812 16.6407 19.0956 16.7175 18.9588 16.8542L16.7077 19.1053C16.5726 19.2405 16.398 19.3291 16.2092 19.3585C16.0204 19.3878 15.8271 19.3563 15.6574 19.2686C13.812 18.3143 11.9515 16.925 10.2771 15.2506C8.60275 13.5762 7.21642 11.717 6.25979 9.87154C6.17194 9.70187 6.14035 9.50866 6.16959 9.31985C6.19883 9.13104 6.28738 8.95644 6.42243 8.82129L8.67417 6.57016C8.8109 6.43331 8.88771 6.24778 8.88771 6.05433C8.88771 5.86089 8.8109 5.67535 8.67417 5.53851L5.66745 2.5312C5.59985 2.4632 5.51941 2.4093 5.43081 2.37262C5.34222 2.33595 5.24722 2.31723 5.15133 2.31755Z" fill="#0E81B2"/>
<path d="M19.5266 13.8242C19.2878 13.8242 19.0588 13.7293 18.89 13.5605C18.7212 13.3917 18.6263 13.1627 18.6263 12.9239C18.6246 11.3447 17.9965 9.8306 16.8799 8.71384C15.7632 7.59708 14.2492 6.96884 12.6699 6.96693C12.4312 6.96693 12.2022 6.87209 12.0334 6.70326C11.8646 6.53444 11.7697 6.30547 11.7697 6.06672C11.7697 5.82797 11.8646 5.59899 12.0334 5.43017C12.2022 5.26135 12.4312 5.1665 12.6699 5.1665C16.9471 5.1665 20.4268 8.64733 20.4268 12.9239C20.4268 13.1627 20.3319 13.3917 20.1631 13.5605C19.9943 13.7293 19.7653 13.8242 19.5266 13.8242Z" fill="#0E81B2"/>
<path d="M23.3315 13.8241C23.0927 13.8241 22.8637 13.7293 22.6949 13.5605C22.5261 13.3916 22.4312 13.1627 22.4312 12.9239C22.4312 7.54124 18.0502 3.162 12.6699 3.162C12.4312 3.162 12.2022 3.06716 12.0334 2.89833C11.8646 2.72951 11.7697 2.50054 11.7697 2.26179C11.7697 2.02303 11.8646 1.79406 12.0334 1.62524C12.2022 1.45642 12.4312 1.36157 12.6699 1.36157C19.0452 1.36157 24.2317 6.5486 24.2317 12.9239C24.2317 13.1627 24.1368 13.3916 23.968 13.5605C23.7992 13.7293 23.5702 13.8241 23.3315 13.8241Z" fill="#0E81B2"/>
</svg>
