<svg width="27" height="27" viewBox="0 0 27 27" fill="none" xmlns="http://www.w3.org/2000/svg">
<g clip-path="url(#clip0_434_5)">
<path d="M21.1618 17.8059C19.6907 17.8059 18.3729 18.5108 17.5454 19.5834L10.0982 15.2622C10.5579 14.1283 10.5579 12.8717 10.0982 11.7378L17.5454 7.41657C18.3729 8.48922 19.6907 9.1941 21.1618 9.1941C23.7055 9.1941 25.7588 7.14075 25.7588 4.59705C25.7588 2.05335 23.7055 0 21.1618 0C18.6181 0 16.5647 2.05335 16.5647 4.59705C16.5647 5.20999 16.6873 5.82293 16.9018 6.34393L9.4546 10.6958C8.59649 9.62316 7.30932 8.91827 5.83826 8.91827C3.29456 8.91827 1.24121 10.9716 1.24121 13.5153C1.24121 16.059 3.29456 18.1124 5.83826 18.1124C7.30932 18.1124 8.62714 17.4075 9.4546 16.3348L16.9018 20.6561C16.6873 21.1771 16.5647 21.79 16.5647 22.403C16.5647 24.9467 18.6181 27 21.1618 27C23.7055 27 25.7588 24.9467 25.7588 22.403C25.7588 19.8593 23.7055 17.8059 21.1618 17.8059ZM21.1618 1.25653C23.0312 1.25653 24.5329 2.75823 24.5329 4.6277C24.5329 6.49716 23.0312 7.99886 21.1618 7.99886C19.2923 7.99886 17.7906 6.49716 17.7906 4.6277C17.7906 2.75823 19.2923 1.25653 21.1618 1.25653ZM5.83826 16.8865C3.96879 16.8865 2.46709 15.3848 2.46709 13.5153C2.46709 11.6459 3.96879 10.1442 5.83826 10.1442C7.70773 10.1442 9.20943 11.6459 9.20943 13.5153C9.20943 15.3848 7.70773 16.8865 5.83826 16.8865ZM21.1618 25.7741C19.2923 25.7741 17.7906 24.2724 17.7906 22.403C17.7906 20.5335 19.2923 19.0318 21.1618 19.0318C23.0312 19.0318 24.5329 20.5335 24.5329 22.403C24.5329 24.2724 23.0312 25.7741 21.1618 25.7741Z" fill="#919191"/>
</g>
<defs>
<clipPath id="clip0_434_5">
<rect width="27" height="27" fill="white"/>
</clipPath>
</defs>
</svg>
