<svg width="26" height="25" viewBox="0 0 26 25" fill="none" xmlns="http://www.w3.org/2000/svg">
<path d="M0.588352 1.19162H4.03217L5.80508 6.44594L6.74644 9.62892V9.63692L7.90745 13.5637C7.90745 13.5717 7.9153 13.5797 7.9153 13.5877L8.62917 15.9949H8.3546C6.93471 15.9949 5.78154 17.1705 5.78154 18.618C5.78154 20.0656 6.93471 21.2412 8.3546 21.2412H9.63329C9.41364 21.6171 9.28028 22.0569 9.28028 22.5208C9.28028 23.8884 10.3707 25 11.7121 25C13.0536 25 14.144 23.8884 14.144 22.5208C14.144 22.0489 14.0185 21.6171 13.791 21.2412H18.4586C18.2389 21.6171 18.1056 22.0569 18.1056 22.5208C18.1056 23.8884 19.196 25 20.5374 25C21.8789 25 22.9693 23.8884 22.9693 22.5208C22.9693 22.0489 22.8438 21.6171 22.6163 21.2412H23.6753C23.9969 21.2412 24.2636 20.9693 24.2636 20.6414C24.2636 20.3135 23.9969 20.0416 23.6753 20.0416H8.34676C7.57798 20.0416 6.9504 19.4018 6.9504 18.618C6.9504 17.8343 7.57798 17.1945 8.34676 17.1945H9.41364H12.4731H19.298H22.3574C22.6163 17.1945 22.8438 17.0186 22.9222 16.7706L23.8636 13.5877C23.8636 13.5797 23.8636 13.5797 23.8636 13.5717L25.9738 6.43794C26.0287 6.254 25.9973 6.06206 25.8797 5.91011C25.762 5.75816 25.5972 5.67019 25.409 5.67019H21.2434C21.2434 5.67019 21.2434 5.67019 21.2356 5.67019H15.8777H10.5197H10.5119H6.76997L4.99707 0.407869C4.91862 0.167946 4.69113 0 4.4401 0H0.588352C0.26672 0 0 0.271913 0 0.599808C0 0.927703 0.26672 1.19162 0.588352 1.19162ZM12.9673 22.5128C12.9673 23.2166 12.4025 23.7924 11.7121 23.7924C11.0218 23.7924 10.457 23.2166 10.457 22.5128C10.457 21.809 11.0218 21.2332 11.7121 21.2332C12.4025 21.2332 12.9673 21.809 12.9673 22.5128ZM21.8004 22.5128C21.8004 23.2166 21.2356 23.7924 20.5453 23.7924C19.8549 23.7924 19.2901 23.2166 19.2901 22.5128C19.2901 21.809 19.8549 21.2332 20.5453 21.2332C21.2356 21.2332 21.8004 21.809 21.8004 22.5128ZM22.8751 12.7879H20.6237L21.1415 10.0528H23.6831L22.8751 12.7879ZM19.4235 12.7879H16.4817V10.0528H19.9491L19.4235 12.7879ZM16.4817 15.9869V13.9875H19.196L18.8194 15.9869H16.4817ZM12.9673 15.9869L12.5907 13.9875H15.305V15.9869H12.9673ZM9.26459 13.9875H11.3905L11.767 15.9869H9.85294L9.26459 13.9875ZM16.4817 8.85317V6.85381H20.5531L20.1766 8.85317H16.4817ZM15.305 8.85317H11.6102L11.2336 6.85381H15.305V8.85317ZM15.305 10.0528V12.7879H12.3632L11.8455 10.0528H15.305ZM11.163 12.7879H8.91158L8.10357 10.0528H10.6453L11.163 12.7879ZM21.9338 15.9869H20.0197L20.3962 13.9875H22.5221L21.9338 15.9869ZM24.044 8.85317H21.3768L21.7533 6.85381H24.6323L24.044 8.85317ZM10.0334 6.85381L10.4099 8.85317H7.74272L7.15436 6.85381H10.0334Z" fill="#ffffff"/>
</svg>
