<svg width="64" height="64" viewBox="0 0 64 64" fill="none" xmlns="http://www.w3.org/2000/svg">
<circle cx="32" cy="32" r="32" fill="#1C8ADB" />
<path d="M49.4327 16.5454L48.7709 16.7854L12.8509 29.7272C12.5963 29.8059 12.3751 29.9669 12.2218 30.1848C12.0686 30.4028 11.992 30.6654 12.004 30.9316C12.0161 31.1978 12.1161 31.4524 12.2885 31.6556C12.4608 31.8588 12.6957 31.9991 12.9563 32.0545L22.2545 34.5999L23.989 39.6908L25.7236 44.7817C25.8232 45.0313 25.9823 45.2528 26.1869 45.4269C26.3916 45.6011 26.6357 45.7226 26.898 45.781C27.1603 45.8394 27.4329 45.8329 27.6921 45.7621C27.9513 45.6912 28.1893 45.5582 28.3854 45.3745L33.189 40.8363L42.6218 47.2327C43.7745 48.0181 45.4181 47.4363 45.7127 46.1417L51.96 18.5381C52.2654 17.1708 50.8254 16.0472 49.4327 16.5454ZM44.8472 22.6727L28.6181 35.9381L27.8545 36.5636C27.6867 36.6966 27.5772 36.8895 27.549 37.1017L27.3781 38.5127L26.909 42.4763C26.9129 42.5245 26.8974 42.5723 26.8661 42.6091C26.8347 42.6459 26.79 42.6688 26.7418 42.6726C26.6935 42.6765 26.6458 42.6611 26.6089 42.6297C26.5721 42.5983 26.5493 42.5536 26.5454 42.5054L25.2254 38.5454L23.8618 34.4908C23.8041 34.3086 23.8118 34.1119 23.8834 33.9347C23.9551 33.7575 24.0863 33.6108 24.2545 33.5199L41.1418 23.8399L44.32 22.0217C44.7818 21.7527 45.2545 22.3381 44.8472 22.6727Z" fill="white"/>
</svg>
