<svg width="64" height="64" viewBox="0 0 64 64" fill="none" xmlns="http://www.w3.org/2000/svg">
<circle cx="32" cy="32" r="32" fill="#7D3DAF" />
<path d="M52.2408 20.6298L52.2281 20.5792C51.2058 16.4463 46.5967 12.0114 42.3641 11.0887L42.3163 11.0789C35.4702 9.77286 28.5285 9.77286 21.6838 11.0789L21.6346 11.0887C17.4034 12.0114 12.7943 16.4463 11.7706 20.5792L11.7593 20.6298C10.4954 26.4016 10.4954 32.2549 11.7593 38.0267L11.7706 38.0773C12.7507 42.0339 17.0165 46.265 21.0912 47.4286V52.0421C21.0912 53.7119 23.126 54.532 24.2832 53.3271L28.9575 48.4682C29.9713 48.525 30.9857 48.5566 32 48.5566C35.4463 48.5566 38.8939 48.2308 42.3163 47.5778L42.3641 47.5679C46.5967 46.6453 51.2058 42.2104 52.2281 38.0774L52.2408 38.0269C53.5047 32.2549 53.5047 26.4016 52.2408 20.6298ZM48.5417 37.1897C47.8592 39.8861 44.3596 43.2382 41.579 43.8575C37.9388 44.5497 34.2699 44.8456 30.6046 44.7441C30.5317 44.7421 30.4616 44.7703 30.4108 44.8226C29.8906 45.3565 26.9978 48.3261 26.9978 48.3261L23.3676 52.0518C23.1022 52.3285 22.6359 52.1403 22.6359 51.7583V44.1156C22.6359 43.9894 22.5458 43.8821 22.4218 43.8578C22.4211 43.8577 22.4204 43.8575 22.4197 43.8574C19.6391 43.2381 16.1409 39.8859 15.4569 37.1896C14.3194 31.9725 14.3194 26.6837 15.4569 21.4666C16.1409 18.7703 19.6391 15.4182 22.4197 14.7988C28.7771 13.5897 35.223 13.5897 41.579 14.7988C44.361 15.4182 47.8592 18.7703 48.5417 21.4666C49.6805 26.6839 49.6805 31.9726 48.5417 37.1897Z" fill="white"/>
<path d="M38.0487 40.7176C37.6212 40.5878 37.2138 40.5006 36.8355 40.3436C32.9151 38.7171 29.3071 36.6188 26.4491 33.4021C24.8239 31.573 23.5518 29.5079 22.4765 27.3225C21.9666 26.2861 21.5369 25.2091 21.0989 24.1391C20.6995 23.1634 21.2878 22.1554 21.9072 21.4202C22.4885 20.7302 23.2364 20.2022 24.0464 19.8131C24.6787 19.5093 25.3023 19.6844 25.7641 20.2203C26.7623 21.3789 27.6792 22.5967 28.4217 23.9397C28.8782 24.7657 28.7529 25.7755 27.9255 26.3376C27.7244 26.4743 27.5411 26.6346 27.3538 26.789C27.1895 26.9242 27.0349 27.0608 26.9222 27.244C26.7164 27.5791 26.7065 27.9742 26.8391 28.3385C27.8595 31.1427 29.5794 33.3232 32.4018 34.4977C32.8535 34.6856 33.3071 34.9044 33.8274 34.8437C34.6988 34.7419 34.9809 33.7861 35.5915 33.2867C36.1883 32.7987 36.951 32.7922 37.5939 33.1991C38.237 33.606 38.8604 34.0429 39.48 34.4845C40.0882 34.9178 40.6937 35.3418 41.2548 35.8359C41.7942 36.3109 41.98 36.9342 41.6762 37.5789C41.1201 38.7597 40.3109 39.742 39.1436 40.3691C38.814 40.5459 38.4204 40.6032 38.0487 40.7176C38.4204 40.6032 37.6212 40.5877 38.0487 40.7176Z" fill="white"/>
<path d="M32.0107 18.4628C37.1386 18.6065 41.3504 22.0096 42.2529 27.0793C42.4067 27.9431 42.4615 28.8263 42.5299 29.703C42.5587 30.0718 42.3498 30.4222 41.9518 30.4269C41.5408 30.4319 41.3558 30.0879 41.3292 29.7193C41.2764 28.9896 41.2397 28.2567 41.1392 27.533C40.6083 23.7131 37.5623 20.5528 33.7601 19.8746C33.1879 19.7725 32.6023 19.7457 32.0228 19.6849C31.6564 19.6464 31.1765 19.6242 31.0953 19.1688C31.0272 18.7869 31.3495 18.4829 31.7131 18.4634C31.812 18.4579 31.9114 18.4624 32.0107 18.4628C37.1386 18.6065 31.9114 18.4624 32.0107 18.4628Z" fill="white"/>
<path d="M39.8037 28.5651C39.7952 28.6292 39.7907 28.7797 39.7532 28.9216C39.6172 29.4364 38.8366 29.5009 38.6569 28.9812C38.6037 28.827 38.5956 28.6516 38.5954 28.4857C38.5935 27.3995 38.3575 26.3145 37.8098 25.3696C37.2468 24.3983 36.3866 23.5819 35.3778 23.0878C34.7677 22.7891 34.108 22.6034 33.4393 22.4928C33.1471 22.4445 32.8518 22.4151 32.5581 22.3743C32.2023 22.3248 32.0123 22.098 32.0291 21.7474C32.0448 21.4187 32.285 21.1824 32.6431 21.2026C33.8199 21.2695 34.9566 21.5238 36.0028 22.0778C38.1304 23.2045 39.3457 24.983 39.7004 27.3577C39.7165 27.4653 39.7423 27.5719 39.7504 27.6798C39.7705 27.9465 39.7832 28.2135 39.8037 28.5651C39.7952 28.6292 39.7832 28.2135 39.8037 28.5651Z" fill="white"/>
<path d="M36.6141 28.4411C36.185 28.4488 35.9554 28.2113 35.9112 27.818C35.8804 27.5437 35.8562 27.2658 35.7907 26.999C35.6618 26.4735 35.3825 25.9864 34.9404 25.6644C34.7317 25.5123 34.4952 25.4015 34.2475 25.33C33.9328 25.2392 33.606 25.2642 33.292 25.1872C32.951 25.1037 32.7624 24.8276 32.816 24.5077C32.8648 24.2165 33.148 23.9893 33.4661 24.0124C35.4542 24.1559 36.8751 25.1837 37.0779 27.5242C37.0922 27.6893 37.1091 27.8639 37.0724 28.0219C37.0097 28.2923 36.8094 28.4279 36.6141 28.4411C36.8094 28.4279 36.185 28.4488 36.6141 28.4411Z" fill="white"/>
</svg>
