<svg width="64" height="64" viewBox="0 0 64 64" fill="none" xmlns="http://www.w3.org/2000/svg">
<path d="M32 0C23.5131 0 15.3737 3.37142 9.37258 9.37258C3.37142 15.3737 0 23.5131 0 32C0 40.4869 3.37142 48.6263 9.37258 54.6274C15.3737 60.6286 23.5131 64 32 64C40.4869 64 48.6263 60.6286 54.6274 54.6274C60.6286 48.6263 64 40.4869 64 32C64 23.5131 60.6286 15.3737 54.6274 9.37258C48.6263 3.37142 40.4869 0 32 0Z" fill="#4D7CB2"/>
<path d="M46.916 25.0547C46.9773 24.8534 47.0067 24.6667 46.9987 24.5001C46.9787 24.0174 46.6467 23.6667 45.8653 23.6667H42.3747C41.4933 23.6667 41.0867 24.2001 40.8493 24.7347C40.8493 24.7347 38.6733 29.2134 36.1653 32.1667C35.352 33.0214 34.9387 33.0001 34.4987 33.0001C34.2627 33.0001 33.6667 32.7147 33.6667 31.9321V25.0187C33.6667 24.0934 33.436 23.6667 32.6907 23.6667H26.492C25.9493 23.6667 25.6667 24.0934 25.6667 24.5214C25.6667 25.4107 26.864 25.6241 27 28.1161V32.9467C27 34.1201 26.796 34.3334 26.356 34.3334C25.1693 34.3334 22.8333 30.3334 21.2693 25.0907C20.9307 24.0587 20.592 23.6667 19.7107 23.6667H16.1867C15.1693 23.6667 15 24.1654 15 24.6987C15 25.6601 15.8 30.8574 20.1667 36.8334C23.3333 41.1667 27.5053 43.6667 31.1987 43.6667C33.436 43.6667 33.6653 43.0974 33.6653 42.2081V38.2454C33.6667 37.1774 33.9107 37.0001 34.6227 37.0001C35.1307 37.0001 36.1667 37.3334 38.1667 39.6667C40.4733 42.3574 40.892 43.6667 42.2147 43.6667H45.7053C46.516 43.6667 46.9813 43.3267 47 42.6667C47.004 42.4987 46.98 42.3107 46.9253 42.1014C46.6667 41.3334 45.48 39.4561 44 37.6667C43.18 36.6761 42.3707 35.6947 41.9987 35.1614C41.7493 34.8134 41.6547 34.5681 41.6667 34.3334C41.6787 34.0867 41.8067 33.8521 41.9987 33.5241C41.964 33.5241 46.476 27.1894 46.916 25.0547Z" fill="white"/>
</svg>
