<svg width="80" height="64" viewBox="0 0 80 64" fill="none" xmlns="http://www.w3.org/2000/svg">
<path d="M76 28L13.656 28L34.828 6.82799C36.39 5.26599 36.39 2.73399 34.828 1.17199C33.266 -0.390012 30.733 -0.390012 29.171 1.17199L1.17102 29.172C-0.390978 30.734 -0.390978 33.267 1.17102 34.828L29.171 62.828C29.952 63.609 30.976 64 32 64C33.023 64 34.047 63.609 34.828 62.828C36.39 61.266 36.39 58.733 34.828 57.172L13.656 36L76 36C78.208 36 80 34.209 80 32C80 29.791 78.209 28 76 28Z" fill="white"/>
</svg>
