<svg width="27" height="27" viewBox="0 0 27 27" fill="none" xmlns="http://www.w3.org/2000/svg">
<g clip-path="url(#clip0_447_2)">
<path d="M7.41523 27C5.67623 27 3.93719 26.3382 2.61334 25.0143C-0.034154 22.3663 -0.0338596 18.0585 2.61414 15.411L16.574 1.45113C18.5093 -0.483856 21.6576 -0.483562 23.5923 1.45113C24.54 2.39883 25.0566 3.64532 25.0566 4.97027C25.0566 6.29521 24.5398 7.54166 23.602 8.47927L10.7216 21.3585L10.5507 21.5111C9.45748 22.5891 7.69127 22.5844 6.60336 21.497L6.57774 21.4709C6.05449 20.9478 5.76272 20.2441 5.76272 19.4963C5.76272 18.7484 6.05453 18.0446 6.58389 17.5155L13.2746 10.8245C13.5351 10.5637 13.9577 10.5637 14.2184 10.8245C14.4792 11.0851 14.4792 11.5077 14.2184 11.7682L7.52788 18.4595C7.2505 18.7368 7.0978 19.1052 7.0978 19.4966C7.0978 19.888 7.2505 20.2564 7.52788 20.5336L7.5535 20.5598C8.11891 21.1252 9.04957 21.1251 9.62116 20.5535L22.6581 7.53573C23.3439 6.84989 23.7217 5.939 23.7217 4.97048C23.7217 4.00195 23.3439 3.09106 22.6581 2.40522C21.2339 0.980706 18.9326 0.980706 17.5177 2.39538L3.55784 16.3547C1.43041 18.4819 1.43011 21.9433 3.55704 24.0702C5.68477 26.1974 9.14624 26.1974 11.2731 24.0702L25.2328 10.1101C25.4936 9.84922 25.916 9.84922 26.1765 10.1101C26.4374 10.3706 26.4374 10.7932 26.1765 11.0538L12.2169 25.014C10.8933 26.3378 9.15423 27 7.41523 27Z" fill="black"/>
</g>
<defs>
<clipPath id="clip0_447_2">
<rect width="27" height="27" fill="white"/>
</clipPath>
</defs>
</svg>
