<svg width="32" height="32" viewBox="0 0 32 32" fill="none" xmlns="http://www.w3.org/2000/svg">
<path d="M22.4 32H9.43997C6.79997 32 4.71997 29.84 4.71997 27.28V12.8C4.71997 12.32 5.03997 12 5.51997 12C5.99997 12 6.31997 12.32 6.31997 12.8V27.28C6.31997 29.04 7.75997 30.4 9.43997 30.4H22.4C24.16 30.4 25.52 28.96 25.52 27.28V12.8C25.52 12.32 25.84 12 26.32 12C26.8 12 27.12 12.32 27.12 12.8V27.28C27.12 29.84 24.96 32 22.4 32Z" fill="#4B85BD"/>
<path d="M26.64 3.92H20.56C20.16 1.68 18.24 0 15.92 0C13.6 0 11.68 1.68 11.28 3.92H5.20004C3.36004 3.92 1.92004 5.36 1.92004 7.2C1.92004 9.04 3.36004 10.4 5.20004 10.4H26.72C28.56 10.4 30 8.96 30 7.12C30 5.28 28.48 3.92 26.64 3.92ZM15.92 1.6C17.36 1.6 18.56 2.56 18.88 3.92H12.88C13.28 2.56 14.48 1.6 15.92 1.6ZM26.64 8.8H5.20004C4.32004 8.8 3.52004 8.08 3.52004 7.12C3.52004 6.24 4.24004 5.44 5.20004 5.44H26.72C27.6 5.44 28.4 6.16 28.4 7.12C28.32 8.08 27.6 8.8 26.64 8.8Z" fill="#4B85BD"/>
<path d="M10.32 28.0801C9.84002 28.0801 9.52002 27.7601 9.52002 27.2801V13.9201C9.52002 13.4401 9.84002 13.1201 10.32 13.1201C10.8 13.1201 11.12 13.4401 11.12 13.9201V27.2801C11.12 27.6801 10.72 28.0801 10.32 28.0801Z" fill="#4B85BD"/>
<path d="M21.52 28.0801C21.04 28.0801 20.72 27.7601 20.72 27.2801V13.9201C20.72 13.4401 21.04 13.1201 21.52 13.1201C22 13.1201 22.32 13.4401 22.32 13.9201V27.2801C22.32 27.6801 21.92 28.0801 21.52 28.0801Z" fill="#4B85BD"/>
<path d="M15.92 28.0801C15.44 28.0801 15.12 27.7601 15.12 27.2801V13.9201C15.12 13.4401 15.44 13.1201 15.92 13.1201C16.4 13.1201 16.72 13.4401 16.72 13.9201V27.2801C16.72 27.6801 16.32 28.0801 15.92 28.0801Z" fill="#4B85BD"/>
</svg>
