<svg width="20" height="27" viewBox="0 0 20 27" fill="none" xmlns="http://www.w3.org/2000/svg">
<g clip-path="url(#clip0_434_2)">
<path d="M17.3982 7.36327V25.7495C17.3982 26.6058 16.7044 27.311 15.862 27.311H3.94415C3.10172 27.311 2.40796 26.6058 2.40796 25.7495V7.36327H17.3982ZM13.5082 9.40339V25.2205H14.4002V9.40339H13.5082ZM9.46948 9.40339V25.2205H10.3615V9.40339H9.46948ZM5.43078 9.40339V25.2205H6.32277V9.40339H5.43078ZM6.42188 3.10674V1.79704C6.42188 0.965886 7.06608 0.311035 7.88373 0.311035H11.9472C12.7649 0.311035 13.4091 0.965886 13.4091 1.79704V3.10674H17.8937C18.7362 3.10674 19.4299 3.81197 19.4299 4.66831V5.75133H0.401001V4.64313C0.401001 3.78678 1.09476 3.08156 1.93719 3.08156H6.42188V3.10674ZM7.88373 1.3185C7.63596 1.3185 7.43774 1.51999 7.43774 1.77186V3.08156H12.418V1.77186C12.418 1.51999 12.2198 1.3185 11.972 1.3185H7.88373Z" fill="#919191"/>
</g>
<defs>
<clipPath id="clip0_434_2">
<rect width="20" height="27" fill="white"/>
</clipPath>
</defs>
</svg>
