<svg width="70" height="70" viewBox="0 0 70 70" fill="none" xmlns="http://www.w3.org/2000/svg">
<path d="M44.6664 5.89665C41.7594 7.90014 34.9765 13.4096 34.9765 13.4096C34.9765 13.4096 28.6781 7.90002 25.2867 5.89665C21.8952 3.89328 15.5968 3.58488 10.7519 5.89665C5.90696 8.20842 3 14.4113 3 19.9208C3 25.4302 4.93797 29.4371 7.36044 32.4423C9.7829 35.4475 34.9765 66 34.9765 66C34.9765 66 61.1391 34.4457 62.5926 32.4423C64.0461 30.4389 67.4375 26.9329 66.953 19.9208C66.4686 12.9086 63.5616 8.90177 58.7167 5.89665C53.8717 2.89153 47.5733 3.89315 44.6664 5.89665Z" stroke="#0E81B2" stroke-width="4.5" stroke-linejoin="round"/>
</svg>
