<svg width="44" height="28" viewBox="0 0 44 28" fill="none" xmlns="http://www.w3.org/2000/svg">
<path d="M32 7.00002C32 7.00002 27.125 7.00002 24.5 10.5C21.875 14 22 16.5 22 16.5M32 10.5C32 10.5 29.5 10.5 27.5 12.5C25.5 14.5 25.5 16.5 25.5 16.5M35 9.00002C35 9.00002 36.5 7.00007 37.5 6.50002C38.5 5.99997 40 6.00002 40.5 6.50002C41 7.00002 42 9.50002 42 9.50002C42 9.50002 42.5 10.5 42 13.5C41.5 16.5 35 25.5 30 26.5C25 27.5 24 26.5 24 26.5C24 26.5 22 26 21.5 25C21 24 21 23 21.5 22C22 21 24 20 24 20C24 20 25.5 19.5 26.5 20C27.5 20.5 27.1992 21.5955 28.5 22C29.8008 22.4046 36.8142 15.4196 36.5 14C36.1858 12.5804 35 12.5 34.5 11.5C34 10.5 34.451 9.95068 35 9.00002Z" stroke="#0E81B2" stroke-linecap="round" stroke-linejoin="round"  stroke-width="1.5"/>
<path d="M1 1H28L14.5 14L1 1ZM1 1V21H16" stroke="#0E81B2" stroke-linecap="round" stroke-linejoin="round" stroke-width="1.5"/>
</svg>
