<svg width="64" height="64" viewBox="0 0 64 64" fill="none" xmlns="http://www.w3.org/2000/svg">
<circle cx="32" cy="32" r="32" fill="#ED8C1C" />
<path d="M30.0328 40.1744C26.931 39.8508 24.1346 39.0835 21.7419 37.2144C21.4437 36.9817 21.1382 36.7563 20.8655 36.4872C19.8182 35.4799 19.7128 34.3272 20.5419 33.1417C21.251 32.1235 22.44 31.8508 23.68 32.4363C23.9182 32.5568 24.1467 32.6954 24.3637 32.8508C26.581 34.3578 29.1947 35.175 31.8755 35.1996C34.5563 35.2242 37.1845 34.455 39.4291 32.989C39.858 32.6414 40.3528 32.3841 40.8837 32.2326C41.3773 32.0867 41.9057 32.111 42.3838 32.3016C42.862 32.4922 43.2622 32.838 43.52 33.2835C44.1746 34.3526 44.1673 35.3926 43.36 36.2217C42.1226 37.4732 40.6273 38.4398 38.9782 39.0544C37.3727 39.6313 35.7017 40.0063 34.0037 40.1708C34.2582 40.4508 34.3673 40.5854 34.5419 40.7454C36.8437 43.0617 39.1564 45.3672 41.451 47.6872C41.8165 48.0195 42.0644 48.4614 42.1575 48.9466C42.2506 49.4318 42.1839 49.934 41.9673 50.3781C41.7467 50.8648 41.3877 51.2757 40.935 51.5596C40.4823 51.8435 39.956 51.9878 39.4219 51.9744C38.797 51.9129 38.2187 51.6166 37.8037 51.1454C36.0655 49.3963 34.2946 47.6799 32.5928 45.8981C32.0982 45.3817 31.8655 45.4799 31.4219 45.9272C29.6728 47.7454 27.8946 49.5017 26.1091 51.2617C25.7776 51.6291 25.3334 51.876 24.8464 51.9636C24.3593 52.0511 23.8569 51.9744 23.4182 51.7454C22.9429 51.5234 22.5418 51.1689 22.2631 50.7244C21.9845 50.2799 21.8401 49.7644 21.8473 49.2399C21.8998 48.5916 22.2023 47.9892 22.691 47.5599C24.9746 45.2835 27.251 43.006 29.52 40.7272C29.6728 40.5708 29.8182 40.4072 30.0328 40.1744Z" fill="white"/>
<path d="M31.92 32.2474C29.9147 32.2357 27.958 31.6287 26.2982 30.5034C24.6383 29.3781 23.3501 27.7853 22.5968 25.9268C21.8435 24.0684 21.6591 22.0281 22.067 20.0647C22.4749 18.1013 23.4567 16.3032 24.8879 14.8986C26.3191 13.494 28.1352 12.5461 30.1059 12.175C32.0766 11.804 34.1131 12.0266 35.9571 12.8146C37.8011 13.6026 39.3696 14.9205 40.4635 16.6012C41.5575 18.2818 42.1277 20.2495 42.1018 22.2546C42.0654 24.9263 40.975 27.4755 39.068 29.347C37.161 31.2186 34.5919 32.261 31.92 32.2474ZM36.9491 22.1128C36.9462 21.1326 36.6525 20.1754 36.1052 19.3622C35.558 18.549 34.7817 17.9165 33.8748 17.5448C32.9679 17.173 31.971 17.0787 31.0105 17.2738C30.0499 17.4689 29.1688 17.9447 28.4788 18.6408C27.7888 19.337 27.3209 20.2222 27.1342 21.1844C26.9476 22.1467 27.0507 23.1426 27.4304 24.0463C27.8102 24.9499 28.4495 25.7205 29.2675 26.2606C30.0854 26.8006 31.0453 27.0858 32.0254 27.0801C32.6753 27.0787 33.3184 26.9489 33.918 26.6982C34.5176 26.4475 35.0617 26.0809 35.5192 25.6194C35.9767 25.1578 36.3385 24.6105 36.5839 24.0087C36.8293 23.4069 36.9534 22.7627 36.9491 22.1128Z" fill="white"/>
</svg>
