<svg width="32" height="32" viewBox="0 0 32 32" fill="none" xmlns="http://www.w3.org/2000/svg">
<path d="M29.79 1.5H2.20996C2.07735 1.5 1.95018 1.55268 1.85641 1.64645C1.76264 1.74021 1.70996 1.86739 1.70996 2V30C1.70996 30.1326 1.76264 30.2598 1.85641 30.3536C1.95018 30.4473 2.07735 30.5 2.20996 30.5H29.79C29.9226 30.5 30.0497 30.4473 30.1435 30.3536C30.2373 30.2598 30.29 30.1326 30.29 30V2C30.29 1.86739 30.2373 1.74021 30.1435 1.64645C30.0497 1.55268 29.9226 1.5 29.79 1.5ZM29.29 5.5H18.5V2.5H29.29V5.5ZM14.5 6.5H17.5V14.79L16.35 13.65C16.3051 13.6022 16.2509 13.564 16.1907 13.538C16.1305 13.5119 16.0656 13.4985 16 13.4985C15.9344 13.4985 15.8695 13.5119 15.8093 13.538C15.7491 13.564 15.6949 13.6022 15.65 13.65L14.5 14.79V6.5ZM17.5 2.5V5.5H14.5V2.5H17.5ZM2.70996 2.5H13.5V5.5H2.70996V2.5ZM16.5 29.5V22.5H19.5V29.5H16.5ZM24.5 29.5V22.5H27.5V29.5H24.5ZM29.29 29.5H28.5V22C28.5 21.8674 28.4473 21.7402 28.3535 21.6464C28.2597 21.5527 28.1326 21.5 28 21.5H24C23.8674 21.5 23.7402 21.5527 23.6464 21.6464C23.5526 21.7402 23.5 21.8674 23.5 22V29.5H20.5V22C20.5 21.8674 20.4473 21.7402 20.3535 21.6464C20.2597 21.5527 20.1326 21.5 20 21.5H16C15.8674 21.5 15.7402 21.5527 15.6464 21.6464C15.5526 21.7402 15.5 21.8674 15.5 22V29.5H2.70996V6.5H13.5V16C13.5005 16.0987 13.5302 16.1951 13.5853 16.2769C13.6405 16.3588 13.7187 16.4225 13.81 16.46C13.9001 16.5008 14.0008 16.5122 14.0978 16.4924C14.1947 16.4727 14.283 16.4228 14.35 16.35L16 14.71L17.65 16.35C17.6946 16.398 17.7488 16.4362 17.8091 16.462C17.8694 16.4879 17.9344 16.5008 18 16.5C18.0625 16.5142 18.1274 16.5142 18.19 16.5C18.2878 16.4601 18.3706 16.3903 18.4263 16.3004C18.482 16.2106 18.5078 16.1054 18.5 16V6.5H29.29V29.5Z" fill="#ffffff"/>
</svg>
