<svg width="40" height="32" viewBox="0 0 40 32" fill="none" xmlns="http://www.w3.org/2000/svg">
<g clip-path="url(#clip0_474_12)">
<circle cx="20" cy="22" r="5" stroke="white" stroke-width="2"/>
<path d="M34 31C34 31 37 30.5 37 27C37 23.5 32.6938 12.5 20 12.5C7.30618 12.5 3 23.5 3 27C3 30.5 6.5 31 6.5 31H34Z" stroke="white" stroke-width="2"/>
<path d="M38 12C39 10 39 9.5 38.5 8C38.0001 6.5 33.5 1 20 1C6.49997 1 2.50007 6.5 1.50004 8C0.500013 9.5 1.50004 12 2.50001 12.5C3.49999 13 9.49997 12 10.5 11C11.5001 10 11 8.5 12.5 7C13.9999 5.5 25.5001 5.5 27.5 7C29.5 8.5 28.5001 10 29.5 11C30.5 12 37 14 38 12Z" stroke="white" stroke-width="2"/>
</g>
<defs>
<clipPath id="clip0_474_12">
<rect width="40" height="32" fill="white"/>
</clipPath>
</defs>
</svg>
