<svg width="26" height="22" viewBox="0 0 26 22" fill="none" xmlns="http://www.w3.org/2000/svg">
<path d="M23 22H3C2.20435 22 1.44129 21.6839 0.87868 21.1213C0.316071 20.5587 0 19.7956 0 19V7C0 6.20435 0.316071 5.44129 0.87868 4.87868C1.44129 4.31607 2.20435 4 3 4H7.22L7.65 2.27C7.8127 1.62145 8.18742 1.04584 8.71463 0.634572C9.24185 0.223307 9.89135 -3.82922e-05 10.56 4.92428e-09H15.44C16.1087 -3.82922e-05 16.7582 0.223307 17.2854 0.634572C17.8126 1.04584 18.1873 1.62145 18.35 2.27L18.78 4H23C23.7956 4 24.5587 4.31607 25.1213 4.87868C25.6839 5.44129 26 6.20435 26 7V19C26 19.7956 25.6839 20.5587 25.1213 21.1213C24.5587 21.6839 23.7956 22 23 22ZM3 6C2.73478 6 2.48043 6.10536 2.29289 6.29289C2.10536 6.48043 2 6.73478 2 7V19C2 19.2652 2.10536 19.5196 2.29289 19.7071C2.48043 19.8946 2.73478 20 3 20H23C23.2652 20 23.5196 19.8946 23.7071 19.7071C23.8946 19.5196 24 19.2652 24 19V7C24 6.73478 23.8946 6.48043 23.7071 6.29289C23.5196 6.10536 23.2652 6 23 6H18C17.7716 6.00666 17.5477 5.93487 17.3658 5.79659C17.1838 5.65831 17.0548 5.46188 17 5.24L16.38 2.75C16.3233 2.52998 16.1934 2.33582 16.0116 2.1995C15.8299 2.06318 15.6071 1.99281 15.38 2H10.56C10.3329 1.99281 10.1101 2.06318 9.92838 2.1995C9.74661 2.33582 9.61669 2.52998 9.56 2.75L9 5.24C8.94525 5.46188 8.81615 5.65831 8.63421 5.79659C8.45226 5.93487 8.22843 6.00666 8 6H3Z" fill="black"/>
<path d="M13 18C12.0111 18 11.0444 17.7068 10.2222 17.1574C9.39991 16.6079 8.75904 15.8271 8.3806 14.9134C8.00217 13.9998 7.90315 12.9945 8.09608 12.0246C8.289 11.0546 8.76521 10.1637 9.46447 9.46447C10.1637 8.76521 11.0546 8.289 12.0246 8.09608C12.9945 7.90315 13.9998 8.00217 14.9134 8.3806C15.8271 8.75904 16.6079 9.39991 17.1574 10.2222C17.7068 11.0444 18 12.0111 18 13C18 13.6566 17.8707 14.3068 17.6194 14.9134C17.3681 15.52 16.9998 16.0712 16.5355 16.5355C16.0712 16.9998 15.52 17.3681 14.9134 17.6194C14.3068 17.8707 13.6566 18 13 18ZM13 10C12.4067 10 11.8266 10.1759 11.3333 10.5056C10.8399 10.8352 10.4554 11.3038 10.2284 11.852C10.0013 12.4001 9.94189 13.0033 10.0576 13.5853C10.1734 14.1672 10.4591 14.7018 10.8787 15.1213C11.2982 15.5409 11.8328 15.8266 12.4147 15.9424C12.9967 16.0581 13.5999 15.9987 14.1481 15.7716C14.6962 15.5446 15.1648 15.1601 15.4944 14.6667C15.8241 14.1734 16 13.5933 16 13C16 12.2044 15.6839 11.4413 15.1213 10.8787C14.5587 10.3161 13.7957 10 13 10Z" fill="black"/>
<path d="M21 10H20C19.7348 10 19.4804 9.89464 19.2929 9.70711C19.1054 9.51957 19 9.26522 19 9C19 8.73478 19.1054 8.48043 19.2929 8.29289C19.4804 8.10536 19.7348 8 20 8H21C21.2652 8 21.5196 8.10536 21.7071 8.29289C21.8946 8.48043 22 8.73478 22 9C22 9.26522 21.8946 9.51957 21.7071 9.70711C21.5196 9.89464 21.2652 10 21 10Z" fill="black"/>
</svg>
