<svg width="76" height="76" viewBox="0 0 76 76" fill="none" xmlns="http://www.w3.org/2000/svg">
<path d="M23.8305 19.5146L53.1855 36.4626C54.3688 37.1459 54.3688 38.8543 53.1855 39.5376L23.8305 56.4856C22.6472 57.1688 21.1675 56.3146 21.1675 54.9481V21.0521C21.1675 19.6856 22.6464 18.8314 23.8305 19.5146Z" fill="white"/>
<path d="M53.1855 36.4627L23.8305 19.5147C23.6534 19.4129 23.4703 19.3551 23.2863 19.3179L51.6655 35.7027C52.8488 36.386 52.8488 38.0944 51.6655 38.7777L22.3105 55.7257C22.0453 55.8784 21.7663 55.9446 21.4912 55.9544C21.9898 56.6673 22.9816 56.9751 23.8305 56.4857L53.1855 39.5377C54.3688 38.8544 54.3688 37.146 53.1855 36.4627Z" fill="white"/>
<path d="M23.8305 19.5146L53.1855 36.4626C54.3688 37.1459 54.3688 38.8543 53.1855 39.5376L23.8305 56.4856C22.6472 57.1688 21.1675 56.3146 21.1675 54.9481V21.0521C21.1675 19.6856 22.6464 18.8314 23.8305 19.5146Z" fill="white"/>
</svg>
