<svg width="28" height="27" viewBox="0 0 28 27" fill="none" xmlns="http://www.w3.org/2000/svg">
<g clip-path="url(#clip0_434_8)">
<path d="M20.7939 9.08595H6.61071C6.34455 9.08595 6.0893 8.98022 5.9011 8.79203C5.71291 8.60383 5.60718 8.34858 5.60718 8.08242V0.990832C5.60718 0.72468 5.71291 0.469429 5.9011 0.281231C6.0893 0.0930331 6.34455 -0.0126953 6.61071 -0.0126953H20.7939C21.06 -0.0126953 21.3153 0.0930331 21.5035 0.281231C21.6917 0.469429 21.7974 0.72468 21.7974 0.990832V8.08242C21.7974 8.34858 21.6917 8.60383 21.5035 8.79203C21.3153 8.98022 21.06 9.08595 20.7939 9.08595ZM7.61423 7.0789H19.7904V1.99436H7.61423V7.0789Z" fill="#919191"/>
<path d="M20.7939 26.8819H6.61071C6.34455 26.8819 6.0893 26.7761 5.9011 26.5879C5.71291 26.3997 5.60718 26.1445 5.60718 25.8783V14.9794C5.60718 14.7132 5.71291 14.458 5.9011 14.2698C6.0893 14.0816 6.34455 13.9758 6.61071 13.9758H20.7939C21.06 13.9758 21.3153 14.0816 21.5035 14.2698C21.6917 14.458 21.7974 14.7132 21.7974 14.9794V25.8783C21.7974 26.1445 21.6917 26.3997 21.5035 26.5879C21.3153 26.7761 21.06 26.8819 20.7939 26.8819ZM7.61423 24.8748H19.7904V15.9829H7.61423V24.8748Z" fill="#919191"/>
<path d="M24.0219 22.1318H20.7939C20.5278 22.1318 20.2725 22.026 20.0843 21.8378C19.8961 21.6496 19.7904 21.3944 19.7904 21.1282C19.7904 20.8621 19.8961 20.6068 20.0843 20.4186C20.2725 20.2304 20.5278 20.1247 20.7939 20.1247H24.0219C24.3568 20.1244 24.6779 19.9912 24.9147 19.7544C25.1515 19.5176 25.2847 19.1965 25.285 18.8616V10.3497C25.2849 10.0147 25.1517 9.69344 24.9149 9.4565C24.6781 9.21955 24.3569 9.08627 24.0219 9.08591H3.38271C3.04771 9.08627 2.72653 9.21955 2.48971 9.4565C2.25289 9.69344 2.11978 10.0147 2.1196 10.3497V18.8616C2.11996 19.1965 2.25315 19.5176 2.48995 19.7544C2.72675 19.9912 3.04782 20.1244 3.38271 20.1247H6.61072C6.87687 20.1247 7.13213 20.2304 7.32032 20.4186C7.50852 20.6068 7.61425 20.8621 7.61425 21.1282C7.61425 21.3944 7.50852 21.6496 7.32032 21.8378C7.13213 22.026 6.87687 22.1318 6.61072 22.1318H3.38271C2.51574 22.1307 1.68457 21.7858 1.07153 21.1728C0.458486 20.5597 0.113611 19.7286 0.112549 18.8616V10.3497C0.113434 9.4826 0.458231 8.65126 1.07129 8.03808C1.68436 7.42489 2.51562 7.07992 3.38271 7.07886H24.0219C24.889 7.07992 25.7203 7.42489 26.3333 8.03808C26.9464 8.65126 27.2912 9.4826 27.2921 10.3497V18.8616C27.291 19.7286 26.9461 20.5597 26.3331 21.1728C25.7201 21.7858 24.8889 22.1307 24.0219 22.1318Z" fill="#919191"/>
<path d="M5.54034 12.5649C5.50727 12.565 5.47423 12.5634 5.44132 12.5602C5.40921 12.5568 5.37442 12.5515 5.34431 12.5455C5.31421 12.5394 5.27741 12.5307 5.24864 12.5214C5.21988 12.512 5.18642 12.5006 5.15632 12.4879C5.12621 12.4752 5.09678 12.4612 5.06801 12.4458C5.03872 12.4307 5.01035 12.414 4.98304 12.3956C4.95628 12.3775 4.92952 12.3581 4.9041 12.3374C4.87868 12.3167 4.85392 12.2939 4.83051 12.2705C4.80709 12.2471 4.78501 12.2223 4.7636 12.1969C4.74287 12.1716 4.72344 12.1452 4.7054 12.118C4.68711 12.0903 4.67039 12.0622 4.65522 12.0337C4.63984 12.0049 4.62579 11.9748 4.61308 11.9447C4.60036 11.9146 4.58966 11.8831 4.57962 11.8524C4.56959 11.8216 4.56223 11.7855 4.55554 11.7567C4.54885 11.7279 4.54417 11.6898 4.54082 11.6597C4.53441 11.5929 4.53441 11.5257 4.54082 11.459C4.54417 11.4269 4.54952 11.3921 4.55554 11.362C4.56156 11.3319 4.57026 11.2951 4.57962 11.2663C4.58899 11.2375 4.60036 11.2041 4.61308 11.174C4.62579 11.1439 4.63984 11.1138 4.65522 11.085C4.67061 11.0562 4.68734 11.0281 4.7054 11.0007C4.72344 10.9734 4.74287 10.9471 4.7636 10.9217C4.78434 10.8963 4.80709 10.8716 4.83051 10.8482C4.85392 10.8247 4.87868 10.8027 4.9041 10.7813C4.92952 10.7598 4.95628 10.7411 4.98304 10.723C5.01035 10.7047 5.03872 10.6879 5.06801 10.6729C5.097 10.6577 5.12644 10.6437 5.15632 10.6307C5.18642 10.618 5.21787 10.6073 5.24864 10.5973C5.27942 10.5872 5.31555 10.5799 5.34431 10.5732C5.37308 10.5665 5.41121 10.5618 5.44132 10.5585C5.50697 10.5524 5.57303 10.5524 5.63868 10.5585C5.67146 10.5618 5.70558 10.5672 5.73636 10.5732C5.76713 10.5792 5.80326 10.5879 5.83136 10.5973C5.85946 10.6066 5.89425 10.618 5.92435 10.6307C5.95446 10.6434 5.98389 10.6575 6.01266 10.6729C6.04187 10.6881 6.07023 10.7048 6.09763 10.723C6.12439 10.7411 6.15115 10.7605 6.17657 10.7813C6.20199 10.802 6.22675 10.8247 6.25016 10.8482C6.27358 10.8716 6.29499 10.8963 6.31707 10.9217C6.33914 10.9472 6.35721 10.9739 6.37527 11.0007C6.39333 11.0275 6.41006 11.0562 6.42545 11.085C6.44083 11.1138 6.45488 11.1439 6.46759 11.174C6.48031 11.2041 6.49101 11.2355 6.50105 11.2663C6.51108 11.2971 6.51844 11.3332 6.52513 11.362C6.53182 11.3907 6.5365 11.4289 6.53985 11.459C6.54626 11.5257 6.54626 11.5929 6.53985 11.6597C6.5365 11.6918 6.53115 11.7266 6.52513 11.7567C6.51911 11.7868 6.51041 11.8236 6.50105 11.8524C6.49168 11.8811 6.48031 11.9146 6.46759 11.9447C6.45488 11.9748 6.44083 12.0049 6.42545 12.0337C6.41006 12.0624 6.39333 12.0905 6.37527 12.118C6.35721 12.1454 6.33714 12.1715 6.31707 12.1969C6.29699 12.2223 6.27358 12.2471 6.25016 12.2705C6.22675 12.2939 6.20199 12.316 6.17657 12.3374C6.15115 12.3588 6.12439 12.3775 6.09763 12.3956C6.07023 12.4138 6.04187 12.4306 6.01266 12.4458C5.98367 12.4609 5.95423 12.475 5.92435 12.4879C5.89425 12.5006 5.8628 12.5113 5.83136 12.5214C5.79991 12.5314 5.76847 12.5388 5.73636 12.5455C5.70424 12.5521 5.66946 12.5568 5.63868 12.5602C5.606 12.5634 5.57318 12.565 5.54034 12.5649Z" fill="#919191"/>
<path d="M8.48394 12.5647C8.45116 12.5647 8.41704 12.5647 8.38492 12.5601C8.35281 12.5554 8.31802 12.5514 8.28792 12.5453C8.25781 12.5393 8.22101 12.5306 8.19225 12.5212C8.16348 12.5119 8.13003 12.5005 8.09992 12.4878C8.06982 12.4751 8.03971 12.461 8.01094 12.4457C7.98217 12.4303 7.95408 12.4135 7.92665 12.3955C7.89936 12.3774 7.87301 12.358 7.8477 12.3373C7.82228 12.3165 7.79753 12.2938 7.77411 12.2704C7.75069 12.247 7.72862 12.2222 7.70721 12.1968C7.6858 12.1714 7.66707 12.1446 7.649 12.1178C7.63064 12.0904 7.61367 12.062 7.59816 12.0329C7.58344 12.0041 7.56939 11.9747 7.55668 11.9446C7.54397 11.9144 7.53326 11.883 7.52323 11.8522C7.51319 11.8215 7.50583 11.7853 7.49914 11.7566C7.49245 11.7278 7.48777 11.6897 7.48443 11.6596C7.47801 11.5928 7.47801 11.5256 7.48443 11.4588C7.48777 11.4267 7.49312 11.3919 7.49914 11.3618C7.50516 11.3317 7.51386 11.2949 7.52323 11.2662C7.53259 11.2374 7.54397 11.204 7.55668 11.1738C7.56939 11.1437 7.58344 11.1143 7.59816 11.0855C7.61367 11.0564 7.63064 11.028 7.649 11.0006C7.66707 10.9738 7.68647 10.947 7.70721 10.9216C7.72795 10.8962 7.75069 10.8715 7.77411 10.848C7.79753 10.8246 7.82228 10.8025 7.8477 10.7811C7.87301 10.7604 7.89936 10.741 7.92665 10.7229C7.9543 10.7046 7.9824 10.6879 8.01094 10.6728C8.03971 10.6574 8.06982 10.6433 8.09992 10.6306C8.13003 10.6179 8.16147 10.6072 8.19225 10.5972C8.22302 10.5871 8.25915 10.5798 8.28792 10.5731C8.31668 10.5664 8.35482 10.5617 8.38492 10.5583C8.45168 10.5522 8.51887 10.5522 8.58563 10.5583C8.61774 10.5617 8.65253 10.567 8.68264 10.5731C8.71274 10.5791 8.74954 10.5878 8.77831 10.5972C8.80707 10.6065 8.84053 10.6179 8.87063 10.6306C8.90074 10.6433 8.93017 10.6574 8.95894 10.6728C8.98771 10.6881 9.01648 10.7049 9.04391 10.7229C9.07134 10.741 9.09743 10.7604 9.12285 10.7811C9.14827 10.8019 9.17303 10.8246 9.19644 10.848C9.21986 10.8715 9.24127 10.8962 9.26334 10.9216C9.28542 10.947 9.30349 10.9738 9.32155 11.0006C9.3397 11.028 9.35644 11.0564 9.37173 11.0855C9.38689 11.1145 9.40094 11.144 9.41387 11.1738C9.42658 11.204 9.43729 11.2354 9.44732 11.2662C9.45736 11.2969 9.46472 11.3331 9.47141 11.3618C9.4781 11.3906 9.48278 11.4287 9.48613 11.4588C9.49254 11.5256 9.49254 11.5928 9.48613 11.6596C9.48278 11.6917 9.47743 11.7265 9.47141 11.7566C9.46539 11.7867 9.45669 11.8235 9.44732 11.8522C9.43796 11.881 9.42658 11.9144 9.41387 11.9446C9.40116 11.9747 9.38711 12.0041 9.37173 12.0329C9.35644 12.062 9.3397 12.0904 9.32155 12.1178C9.30349 12.1446 9.28341 12.1714 9.26334 12.1968C9.24327 12.2222 9.21986 12.247 9.19644 12.2704C9.17303 12.2938 9.14827 12.3159 9.12285 12.3373C9.09743 12.3587 9.07067 12.3774 9.04391 12.3955C9.01715 12.4135 8.98771 12.4303 8.95894 12.4457C8.93017 12.461 8.90074 12.4751 8.87063 12.4878C8.84053 12.5005 8.80908 12.5112 8.77831 12.5212C8.74753 12.5313 8.7114 12.5386 8.68264 12.5453C8.65387 12.552 8.61574 12.5567 8.58563 12.5601C8.55552 12.5634 8.51672 12.5647 8.48394 12.5647Z" fill="#919191"/>
<path d="M17.6495 19.7903H9.75511C9.48896 19.7903 9.23371 19.6845 9.04551 19.4963C8.85732 19.3081 8.75159 19.0529 8.75159 18.7867C8.75159 18.5206 8.85732 18.2653 9.04551 18.0771C9.23371 17.8889 9.48896 17.7832 9.75511 17.7832H17.6495C17.9157 17.7832 18.1709 17.8889 18.3591 18.0771C18.5473 18.2653 18.6531 18.5206 18.6531 18.7867C18.6531 19.0529 18.5473 19.3081 18.3591 19.4963C18.1709 19.6845 17.9157 19.7903 17.6495 19.7903Z" fill="#919191"/>
<path d="M17.6495 23.3362H9.75511C9.48896 23.3362 9.23371 23.2304 9.04551 23.0422C8.85732 22.854 8.75159 22.5988 8.75159 22.3326C8.75159 22.0665 8.85732 21.8112 9.04551 21.623C9.23371 21.4348 9.48896 21.3291 9.75511 21.3291H17.6495C17.9157 21.3291 18.1709 21.4348 18.3591 21.623C18.5473 21.8112 18.6531 22.0665 18.6531 22.3326C18.6531 22.5988 18.5473 22.854 18.3591 23.0422C18.1709 23.2304 17.9157 23.3362 17.6495 23.3362Z" fill="#919191"/>
</g>
<defs>
<clipPath id="clip0_434_8">
<rect width="27.403" height="27" fill="white"/>
</clipPath>
</defs>
</svg>
