<svg width="26" height="26" viewBox="0 0 26 26" fill="none" xmlns="http://www.w3.org/2000/svg">
<path d="M25.7538 24.5855L19.041 17.98C20.7989 16.0701 21.879 13.5443 21.879 10.7649C21.8781 4.81923 16.9808 0 10.9393 0C4.89775 0 0.000488281 4.81923 0.000488281 10.7649C0.000488281 16.7105 4.89775 21.5298 10.9393 21.5298C13.5497 21.5298 15.9438 20.6269 17.8244 19.1258L24.5632 25.7574C24.8916 26.0808 25.4247 26.0808 25.753 25.7574C26.0821 25.434 26.0821 24.909 25.7538 24.5855ZM10.9393 19.8735C5.82749 19.8735 1.68358 15.7955 1.68358 10.7649C1.68358 5.73431 5.82749 1.65624 10.9393 1.65624C16.0511 1.65624 20.195 5.73431 20.195 10.7649C20.195 15.7955 16.0511 19.8735 10.9393 19.8735Z" fill="#357ab8"/>
</svg>
